<?xml version="1.0" encoding="utf-8" standalone="no"?>
<!DOCTYPE svg PUBLIC "-//W3C//DTD SVG 1.1//EN"
  "http://www.w3.org/Graphics/SVG/1.1/DTD/svg11.dtd">
<!-- Created with matplotlib (http://matplotlib.org/) -->
<svg height="576pt" version="1.1" viewBox="0 0 1152 576" width="1152pt" xmlns="http://www.w3.org/2000/svg" xmlns:xlink="http://www.w3.org/1999/xlink">
 <defs>
  <style type="text/css">
*{stroke-linecap:butt;stroke-linejoin:round;}
  </style>
 </defs>
 <g id="figure_1">
  <g id="patch_1">
   <path d="M 0 576 
L 1152 576 
L 1152 0 
L 0 0 
z
" style="fill:#ffffff;"/>
  </g>
  <g id="axes_1">
   <g id="patch_2">
    <path d="M 144 504 
L 1036.8 504 
L 1036.8 69.12 
L 144 69.12 
z
" style="fill:#ffffff;"/>
   </g>
   <g id="matplotlib.axis_1">
    <g id="xtick_1">
     <g id="line2d_1">
      <defs>
       <path d="M 0 0 
L 0 3.5 
" id="m87da3689c9" style="stroke:#000000;stroke-width:0.8;"/>
      </defs>
      <g>
       <use style="stroke:#000000;stroke-width:0.8;" x="157.274427" xlink:href="#m87da3689c9" y="504"/>
      </g>
     </g>
     <g id="text_1">
      <!-- 2016-07 -->
      <defs>
       <path d="M 19.1875 8.296875 
L 53.609375 8.296875 
L 53.609375 0 
L 7.328125 0 
L 7.328125 8.296875 
Q 12.9375 14.109375 22.625 23.890625 
Q 32.328125 33.6875 34.8125 36.53125 
Q 39.546875 41.84375 41.421875 45.53125 
Q 43.3125 49.21875 43.3125 52.78125 
Q 43.3125 58.59375 39.234375 62.25 
Q 35.15625 65.921875 28.609375 65.921875 
Q 23.96875 65.921875 18.8125 64.3125 
Q 13.671875 62.703125 7.8125 59.421875 
L 7.8125 69.390625 
Q 13.765625 71.78125 18.9375 73 
Q 24.125 74.21875 28.421875 74.21875 
Q 39.75 74.21875 46.484375 68.546875 
Q 53.21875 62.890625 53.21875 53.421875 
Q 53.21875 48.921875 51.53125 44.890625 
Q 49.859375 40.875 45.40625 35.40625 
Q 44.1875 33.984375 37.640625 27.21875 
Q 31.109375 20.453125 19.1875 8.296875 
" id="DejaVuSans-32"/>
       <path d="M 31.78125 66.40625 
Q 24.171875 66.40625 20.328125 58.90625 
Q 16.5 51.421875 16.5 36.375 
Q 16.5 21.390625 20.328125 13.890625 
Q 24.171875 6.390625 31.78125 6.390625 
Q 39.453125 6.390625 43.28125 13.890625 
Q 47.125 21.390625 47.125 36.375 
Q 47.125 51.421875 43.28125 58.90625 
Q 39.453125 66.40625 31.78125 66.40625 
M 31.78125 74.21875 
Q 44.046875 74.21875 50.515625 64.515625 
Q 56.984375 54.828125 56.984375 36.375 
Q 56.984375 17.96875 50.515625 8.265625 
Q 44.046875 -1.421875 31.78125 -1.421875 
Q 19.53125 -1.421875 13.0625 8.265625 
Q 6.59375 17.96875 6.59375 36.375 
Q 6.59375 54.828125 13.0625 64.515625 
Q 19.53125 74.21875 31.78125 74.21875 
" id="DejaVuSans-30"/>
       <path d="M 12.40625 8.296875 
L 28.515625 8.296875 
L 28.515625 63.921875 
L 10.984375 60.40625 
L 10.984375 69.390625 
L 28.421875 72.90625 
L 38.28125 72.90625 
L 38.28125 8.296875 
L 54.390625 8.296875 
L 54.390625 0 
L 12.40625 0 
z
" id="DejaVuSans-31"/>
       <path d="M 33.015625 40.375 
Q 26.375 40.375 22.484375 35.828125 
Q 18.609375 31.296875 18.609375 23.390625 
Q 18.609375 15.53125 22.484375 10.953125 
Q 26.375 6.390625 33.015625 6.390625 
Q 39.65625 6.390625 43.53125 10.953125 
Q 47.40625 15.53125 47.40625 23.390625 
Q 47.40625 31.296875 43.53125 35.828125 
Q 39.65625 40.375 33.015625 40.375 
M 52.59375 71.296875 
L 52.59375 62.3125 
Q 48.875 64.0625 45.09375 64.984375 
Q 41.3125 65.921875 37.59375 65.921875 
Q 27.828125 65.921875 22.671875 59.328125 
Q 17.53125 52.734375 16.796875 39.40625 
Q 19.671875 43.65625 24.015625 45.921875 
Q 28.375 48.1875 33.59375 48.1875 
Q 44.578125 48.1875 50.953125 41.515625 
Q 57.328125 34.859375 57.328125 23.390625 
Q 57.328125 12.15625 50.6875 5.359375 
Q 44.046875 -1.421875 33.015625 -1.421875 
Q 20.359375 -1.421875 13.671875 8.265625 
Q 6.984375 17.96875 6.984375 36.375 
Q 6.984375 53.65625 15.1875 63.9375 
Q 23.390625 74.21875 37.203125 74.21875 
Q 40.921875 74.21875 44.703125 73.484375 
Q 48.484375 72.75 52.59375 71.296875 
" id="DejaVuSans-36"/>
       <path d="M 4.890625 31.390625 
L 31.203125 31.390625 
L 31.203125 23.390625 
L 4.890625 23.390625 
z
" id="DejaVuSans-2d"/>
       <path d="M 8.203125 72.90625 
L 55.078125 72.90625 
L 55.078125 68.703125 
L 28.609375 0 
L 18.3125 0 
L 43.21875 64.59375 
L 8.203125 64.59375 
z
" id="DejaVuSans-37"/>
      </defs>
      <g transform="translate(136.38302 518.598438)scale(0.1 -0.1)">
       <use xlink:href="#DejaVuSans-32"/>
       <use x="63.623047" xlink:href="#DejaVuSans-30"/>
       <use x="127.246094" xlink:href="#DejaVuSans-31"/>
       <use x="190.869141" xlink:href="#DejaVuSans-36"/>
       <use x="254.492188" xlink:href="#DejaVuSans-2d"/>
       <use x="290.576172" xlink:href="#DejaVuSans-30"/>
       <use x="354.199219" xlink:href="#DejaVuSans-37"/>
      </g>
     </g>
    </g>
    <g id="xtick_2">
     <g id="line2d_2">
      <g>
       <use style="stroke:#000000;stroke-width:0.8;" x="251.33322" xlink:href="#m87da3689c9" y="504"/>
      </g>
     </g>
     <g id="text_2">
      <!-- 2016-09 -->
      <defs>
       <path d="M 10.984375 1.515625 
L 10.984375 10.5 
Q 14.703125 8.734375 18.5 7.8125 
Q 22.3125 6.890625 25.984375 6.890625 
Q 35.75 6.890625 40.890625 13.453125 
Q 46.046875 20.015625 46.78125 33.40625 
Q 43.953125 29.203125 39.59375 26.953125 
Q 35.25 24.703125 29.984375 24.703125 
Q 19.046875 24.703125 12.671875 31.3125 
Q 6.296875 37.9375 6.296875 49.421875 
Q 6.296875 60.640625 12.9375 67.421875 
Q 19.578125 74.21875 30.609375 74.21875 
Q 43.265625 74.21875 49.921875 64.515625 
Q 56.59375 54.828125 56.59375 36.375 
Q 56.59375 19.140625 48.40625 8.859375 
Q 40.234375 -1.421875 26.421875 -1.421875 
Q 22.703125 -1.421875 18.890625 -0.6875 
Q 15.09375 0.046875 10.984375 1.515625 
M 30.609375 32.421875 
Q 37.25 32.421875 41.125 36.953125 
Q 45.015625 41.5 45.015625 49.421875 
Q 45.015625 57.28125 41.125 61.84375 
Q 37.25 66.40625 30.609375 66.40625 
Q 23.96875 66.40625 20.09375 61.84375 
Q 16.21875 57.28125 16.21875 49.421875 
Q 16.21875 41.5 20.09375 36.953125 
Q 23.96875 32.421875 30.609375 32.421875 
" id="DejaVuSans-39"/>
      </defs>
      <g transform="translate(230.441814 518.598438)scale(0.1 -0.1)">
       <use xlink:href="#DejaVuSans-32"/>
       <use x="63.623047" xlink:href="#DejaVuSans-30"/>
       <use x="127.246094" xlink:href="#DejaVuSans-31"/>
       <use x="190.869141" xlink:href="#DejaVuSans-36"/>
       <use x="254.492188" xlink:href="#DejaVuSans-2d"/>
       <use x="290.576172" xlink:href="#DejaVuSans-30"/>
       <use x="354.199219" xlink:href="#DejaVuSans-39"/>
      </g>
     </g>
    </g>
    <g id="xtick_3">
     <g id="line2d_3">
      <g>
       <use style="stroke:#000000;stroke-width:0.8;" x="343.874936" xlink:href="#m87da3689c9" y="504"/>
      </g>
     </g>
     <g id="text_3">
      <!-- 2016-11 -->
      <g transform="translate(322.98353 518.598438)scale(0.1 -0.1)">
       <use xlink:href="#DejaVuSans-32"/>
       <use x="63.623047" xlink:href="#DejaVuSans-30"/>
       <use x="127.246094" xlink:href="#DejaVuSans-31"/>
       <use x="190.869141" xlink:href="#DejaVuSans-36"/>
       <use x="254.492188" xlink:href="#DejaVuSans-2d"/>
       <use x="290.576172" xlink:href="#DejaVuSans-31"/>
       <use x="354.199219" xlink:href="#DejaVuSans-31"/>
      </g>
     </g>
    </g>
    <g id="xtick_4">
     <g id="line2d_4">
      <g>
       <use style="stroke:#000000;stroke-width:0.8;" x="436.416653" xlink:href="#m87da3689c9" y="504"/>
      </g>
     </g>
     <g id="text_4">
      <!-- 2017-01 -->
      <g transform="translate(415.525246 518.598438)scale(0.1 -0.1)">
       <use xlink:href="#DejaVuSans-32"/>
       <use x="63.623047" xlink:href="#DejaVuSans-30"/>
       <use x="127.246094" xlink:href="#DejaVuSans-31"/>
       <use x="190.869141" xlink:href="#DejaVuSans-37"/>
       <use x="254.492188" xlink:href="#DejaVuSans-2d"/>
       <use x="290.576172" xlink:href="#DejaVuSans-30"/>
       <use x="354.199219" xlink:href="#DejaVuSans-31"/>
      </g>
     </g>
    </g>
    <g id="xtick_5">
     <g id="line2d_5">
      <g>
       <use style="stroke:#000000;stroke-width:0.8;" x="525.924214" xlink:href="#m87da3689c9" y="504"/>
      </g>
     </g>
     <g id="text_5">
      <!-- 2017-03 -->
      <defs>
       <path d="M 40.578125 39.3125 
Q 47.65625 37.796875 51.625 33 
Q 55.609375 28.21875 55.609375 21.1875 
Q 55.609375 10.40625 48.1875 4.484375 
Q 40.765625 -1.421875 27.09375 -1.421875 
Q 22.515625 -1.421875 17.65625 -0.515625 
Q 12.796875 0.390625 7.625 2.203125 
L 7.625 11.71875 
Q 11.71875 9.328125 16.59375 8.109375 
Q 21.484375 6.890625 26.8125 6.890625 
Q 36.078125 6.890625 40.9375 10.546875 
Q 45.796875 14.203125 45.796875 21.1875 
Q 45.796875 27.640625 41.28125 31.265625 
Q 36.765625 34.90625 28.71875 34.90625 
L 20.21875 34.90625 
L 20.21875 43.015625 
L 29.109375 43.015625 
Q 36.375 43.015625 40.234375 45.921875 
Q 44.09375 48.828125 44.09375 54.296875 
Q 44.09375 59.90625 40.109375 62.90625 
Q 36.140625 65.921875 28.71875 65.921875 
Q 24.65625 65.921875 20.015625 65.03125 
Q 15.375 64.15625 9.8125 62.3125 
L 9.8125 71.09375 
Q 15.4375 72.65625 20.34375 73.4375 
Q 25.25 74.21875 29.59375 74.21875 
Q 40.828125 74.21875 47.359375 69.109375 
Q 53.90625 64.015625 53.90625 55.328125 
Q 53.90625 49.265625 50.4375 45.09375 
Q 46.96875 40.921875 40.578125 39.3125 
" id="DejaVuSans-33"/>
      </defs>
      <g transform="translate(505.032808 518.598438)scale(0.1 -0.1)">
       <use xlink:href="#DejaVuSans-32"/>
       <use x="63.623047" xlink:href="#DejaVuSans-30"/>
       <use x="127.246094" xlink:href="#DejaVuSans-31"/>
       <use x="190.869141" xlink:href="#DejaVuSans-37"/>
       <use x="254.492188" xlink:href="#DejaVuSans-2d"/>
       <use x="290.576172" xlink:href="#DejaVuSans-30"/>
       <use x="354.199219" xlink:href="#DejaVuSans-33"/>
      </g>
     </g>
    </g>
    <g id="xtick_6">
     <g id="line2d_6">
      <g>
       <use style="stroke:#000000;stroke-width:0.8;" x="618.46593" xlink:href="#m87da3689c9" y="504"/>
      </g>
     </g>
     <g id="text_6">
      <!-- 2017-05 -->
      <defs>
       <path d="M 10.796875 72.90625 
L 49.515625 72.90625 
L 49.515625 64.59375 
L 19.828125 64.59375 
L 19.828125 46.734375 
Q 21.96875 47.46875 24.109375 47.828125 
Q 26.265625 48.1875 28.421875 48.1875 
Q 40.625 48.1875 47.75 41.5 
Q 54.890625 34.8125 54.890625 23.390625 
Q 54.890625 11.625 47.5625 5.09375 
Q 40.234375 -1.421875 26.90625 -1.421875 
Q 22.3125 -1.421875 17.546875 -0.640625 
Q 12.796875 0.140625 7.71875 1.703125 
L 7.71875 11.625 
Q 12.109375 9.234375 16.796875 8.0625 
Q 21.484375 6.890625 26.703125 6.890625 
Q 35.15625 6.890625 40.078125 11.328125 
Q 45.015625 15.765625 45.015625 23.390625 
Q 45.015625 31 40.078125 35.4375 
Q 35.15625 39.890625 26.703125 39.890625 
Q 22.75 39.890625 18.8125 39.015625 
Q 14.890625 38.140625 10.796875 36.28125 
z
" id="DejaVuSans-35"/>
      </defs>
      <g transform="translate(597.574524 518.598438)scale(0.1 -0.1)">
       <use xlink:href="#DejaVuSans-32"/>
       <use x="63.623047" xlink:href="#DejaVuSans-30"/>
       <use x="127.246094" xlink:href="#DejaVuSans-31"/>
       <use x="190.869141" xlink:href="#DejaVuSans-37"/>
       <use x="254.492188" xlink:href="#DejaVuSans-2d"/>
       <use x="290.576172" xlink:href="#DejaVuSans-30"/>
       <use x="354.199219" xlink:href="#DejaVuSans-35"/>
      </g>
     </g>
    </g>
    <g id="xtick_7">
     <g id="line2d_7">
      <g>
       <use style="stroke:#000000;stroke-width:0.8;" x="711.007647" xlink:href="#m87da3689c9" y="504"/>
      </g>
     </g>
     <g id="text_7">
      <!-- 2017-07 -->
      <g transform="translate(690.11624 518.598438)scale(0.1 -0.1)">
       <use xlink:href="#DejaVuSans-32"/>
       <use x="63.623047" xlink:href="#DejaVuSans-30"/>
       <use x="127.246094" xlink:href="#DejaVuSans-31"/>
       <use x="190.869141" xlink:href="#DejaVuSans-37"/>
       <use x="254.492188" xlink:href="#DejaVuSans-2d"/>
       <use x="290.576172" xlink:href="#DejaVuSans-30"/>
       <use x="354.199219" xlink:href="#DejaVuSans-37"/>
      </g>
     </g>
    </g>
    <g id="xtick_8">
     <g id="line2d_8">
      <g>
       <use style="stroke:#000000;stroke-width:0.8;" x="805.06644" xlink:href="#m87da3689c9" y="504"/>
      </g>
     </g>
     <g id="text_8">
      <!-- 2017-09 -->
      <g transform="translate(784.175034 518.598438)scale(0.1 -0.1)">
       <use xlink:href="#DejaVuSans-32"/>
       <use x="63.623047" xlink:href="#DejaVuSans-30"/>
       <use x="127.246094" xlink:href="#DejaVuSans-31"/>
       <use x="190.869141" xlink:href="#DejaVuSans-37"/>
       <use x="254.492188" xlink:href="#DejaVuSans-2d"/>
       <use x="290.576172" xlink:href="#DejaVuSans-30"/>
       <use x="354.199219" xlink:href="#DejaVuSans-39"/>
      </g>
     </g>
    </g>
    <g id="xtick_9">
     <g id="line2d_9">
      <g>
       <use style="stroke:#000000;stroke-width:0.8;" x="897.608156" xlink:href="#m87da3689c9" y="504"/>
      </g>
     </g>
     <g id="text_9">
      <!-- 2017-11 -->
      <g transform="translate(876.71675 518.598438)scale(0.1 -0.1)">
       <use xlink:href="#DejaVuSans-32"/>
       <use x="63.623047" xlink:href="#DejaVuSans-30"/>
       <use x="127.246094" xlink:href="#DejaVuSans-31"/>
       <use x="190.869141" xlink:href="#DejaVuSans-37"/>
       <use x="254.492188" xlink:href="#DejaVuSans-2d"/>
       <use x="290.576172" xlink:href="#DejaVuSans-31"/>
       <use x="354.199219" xlink:href="#DejaVuSans-31"/>
      </g>
     </g>
    </g>
    <g id="xtick_10">
     <g id="line2d_10">
      <g>
       <use style="stroke:#000000;stroke-width:0.8;" x="990.149873" xlink:href="#m87da3689c9" y="504"/>
      </g>
     </g>
     <g id="text_10">
      <!-- 2018-01 -->
      <defs>
       <path d="M 31.78125 34.625 
Q 24.75 34.625 20.71875 30.859375 
Q 16.703125 27.09375 16.703125 20.515625 
Q 16.703125 13.921875 20.71875 10.15625 
Q 24.75 6.390625 31.78125 6.390625 
Q 38.8125 6.390625 42.859375 10.171875 
Q 46.921875 13.96875 46.921875 20.515625 
Q 46.921875 27.09375 42.890625 30.859375 
Q 38.875 34.625 31.78125 34.625 
M 21.921875 38.8125 
Q 15.578125 40.375 12.03125 44.71875 
Q 8.5 49.078125 8.5 55.328125 
Q 8.5 64.0625 14.71875 69.140625 
Q 20.953125 74.21875 31.78125 74.21875 
Q 42.671875 74.21875 48.875 69.140625 
Q 55.078125 64.0625 55.078125 55.328125 
Q 55.078125 49.078125 51.53125 44.71875 
Q 48 40.375 41.703125 38.8125 
Q 48.828125 37.15625 52.796875 32.3125 
Q 56.78125 27.484375 56.78125 20.515625 
Q 56.78125 9.90625 50.3125 4.234375 
Q 43.84375 -1.421875 31.78125 -1.421875 
Q 19.734375 -1.421875 13.25 4.234375 
Q 6.78125 9.90625 6.78125 20.515625 
Q 6.78125 27.484375 10.78125 32.3125 
Q 14.796875 37.15625 21.921875 38.8125 
M 18.3125 54.390625 
Q 18.3125 48.734375 21.84375 45.5625 
Q 25.390625 42.390625 31.78125 42.390625 
Q 38.140625 42.390625 41.71875 45.5625 
Q 45.3125 48.734375 45.3125 54.390625 
Q 45.3125 60.0625 41.71875 63.234375 
Q 38.140625 66.40625 31.78125 66.40625 
Q 25.390625 66.40625 21.84375 63.234375 
Q 18.3125 60.0625 18.3125 54.390625 
" id="DejaVuSans-38"/>
      </defs>
      <g transform="translate(969.258466 518.598438)scale(0.1 -0.1)">
       <use xlink:href="#DejaVuSans-32"/>
       <use x="63.623047" xlink:href="#DejaVuSans-30"/>
       <use x="127.246094" xlink:href="#DejaVuSans-31"/>
       <use x="190.869141" xlink:href="#DejaVuSans-38"/>
       <use x="254.492188" xlink:href="#DejaVuSans-2d"/>
       <use x="290.576172" xlink:href="#DejaVuSans-30"/>
       <use x="354.199219" xlink:href="#DejaVuSans-31"/>
      </g>
     </g>
    </g>
   </g>
   <g id="matplotlib.axis_2">
    <g id="ytick_1">
     <g id="line2d_11">
      <defs>
       <path d="M 0 0 
L -3.5 0 
" id="m708b4a3881" style="stroke:#000000;stroke-width:0.8;"/>
      </defs>
      <g>
       <use style="stroke:#000000;stroke-width:0.8;" x="144" xlink:href="#m708b4a3881" y="485.833316"/>
      </g>
     </g>
     <g id="text_11">
      <!-- 100 -->
      <g transform="translate(117.9125 489.632535)scale(0.1 -0.1)">
       <use xlink:href="#DejaVuSans-31"/>
       <use x="63.623047" xlink:href="#DejaVuSans-30"/>
       <use x="127.246094" xlink:href="#DejaVuSans-30"/>
      </g>
     </g>
    </g>
    <g id="ytick_2">
     <g id="line2d_12">
      <g>
       <use style="stroke:#000000;stroke-width:0.8;" x="144" xlink:href="#m708b4a3881" y="432.480353"/>
      </g>
     </g>
     <g id="text_12">
      <!-- 101 -->
      <g transform="translate(117.9125 436.279572)scale(0.1 -0.1)">
       <use xlink:href="#DejaVuSans-31"/>
       <use x="63.623047" xlink:href="#DejaVuSans-30"/>
       <use x="127.246094" xlink:href="#DejaVuSans-31"/>
      </g>
     </g>
    </g>
    <g id="ytick_3">
     <g id="line2d_13">
      <g>
       <use style="stroke:#000000;stroke-width:0.8;" x="144" xlink:href="#m708b4a3881" y="379.127391"/>
      </g>
     </g>
     <g id="text_13">
      <!-- 102 -->
      <g transform="translate(117.9125 382.926609)scale(0.1 -0.1)">
       <use xlink:href="#DejaVuSans-31"/>
       <use x="63.623047" xlink:href="#DejaVuSans-30"/>
       <use x="127.246094" xlink:href="#DejaVuSans-32"/>
      </g>
     </g>
    </g>
    <g id="ytick_4">
     <g id="line2d_14">
      <g>
       <use style="stroke:#000000;stroke-width:0.8;" x="144" xlink:href="#m708b4a3881" y="325.774428"/>
      </g>
     </g>
     <g id="text_14">
      <!-- 103 -->
      <g transform="translate(117.9125 329.573646)scale(0.1 -0.1)">
       <use xlink:href="#DejaVuSans-31"/>
       <use x="63.623047" xlink:href="#DejaVuSans-30"/>
       <use x="127.246094" xlink:href="#DejaVuSans-33"/>
      </g>
     </g>
    </g>
    <g id="ytick_5">
     <g id="line2d_15">
      <g>
       <use style="stroke:#000000;stroke-width:0.8;" x="144" xlink:href="#m708b4a3881" y="272.421465"/>
      </g>
     </g>
     <g id="text_15">
      <!-- 104 -->
      <defs>
       <path d="M 37.796875 64.3125 
L 12.890625 25.390625 
L 37.796875 25.390625 
z
M 35.203125 72.90625 
L 47.609375 72.90625 
L 47.609375 25.390625 
L 58.015625 25.390625 
L 58.015625 17.1875 
L 47.609375 17.1875 
L 47.609375 0 
L 37.796875 0 
L 37.796875 17.1875 
L 4.890625 17.1875 
L 4.890625 26.703125 
z
" id="DejaVuSans-34"/>
      </defs>
      <g transform="translate(117.9125 276.220684)scale(0.1 -0.1)">
       <use xlink:href="#DejaVuSans-31"/>
       <use x="63.623047" xlink:href="#DejaVuSans-30"/>
       <use x="127.246094" xlink:href="#DejaVuSans-34"/>
      </g>
     </g>
    </g>
    <g id="ytick_6">
     <g id="line2d_16">
      <g>
       <use style="stroke:#000000;stroke-width:0.8;" x="144" xlink:href="#m708b4a3881" y="219.068502"/>
      </g>
     </g>
     <g id="text_16">
      <!-- 105 -->
      <g transform="translate(117.9125 222.867721)scale(0.1 -0.1)">
       <use xlink:href="#DejaVuSans-31"/>
       <use x="63.623047" xlink:href="#DejaVuSans-30"/>
       <use x="127.246094" xlink:href="#DejaVuSans-35"/>
      </g>
     </g>
    </g>
    <g id="ytick_7">
     <g id="line2d_17">
      <g>
       <use style="stroke:#000000;stroke-width:0.8;" x="144" xlink:href="#m708b4a3881" y="165.715539"/>
      </g>
     </g>
     <g id="text_17">
      <!-- 106 -->
      <g transform="translate(117.9125 169.514758)scale(0.1 -0.1)">
       <use xlink:href="#DejaVuSans-31"/>
       <use x="63.623047" xlink:href="#DejaVuSans-30"/>
       <use x="127.246094" xlink:href="#DejaVuSans-36"/>
      </g>
     </g>
    </g>
    <g id="ytick_8">
     <g id="line2d_18">
      <g>
       <use style="stroke:#000000;stroke-width:0.8;" x="144" xlink:href="#m708b4a3881" y="112.362576"/>
      </g>
     </g>
     <g id="text_18">
      <!-- 107 -->
      <g transform="translate(117.9125 116.161795)scale(0.1 -0.1)">
       <use xlink:href="#DejaVuSans-31"/>
       <use x="63.623047" xlink:href="#DejaVuSans-30"/>
       <use x="127.246094" xlink:href="#DejaVuSans-37"/>
      </g>
     </g>
    </g>
    <g id="text_19">
     <!-- Allianz PIMCO Income -->
     <defs>
      <path d="M 34.1875 63.1875 
L 20.796875 26.90625 
L 47.609375 26.90625 
z
M 28.609375 72.90625 
L 39.796875 72.90625 
L 67.578125 0 
L 57.328125 0 
L 50.6875 18.703125 
L 17.828125 18.703125 
L 11.1875 0 
L 0.78125 0 
z
" id="DejaVuSans-41"/>
      <path d="M 9.421875 75.984375 
L 18.40625 75.984375 
L 18.40625 0 
L 9.421875 0 
z
" id="DejaVuSans-6c"/>
      <path d="M 9.421875 54.6875 
L 18.40625 54.6875 
L 18.40625 0 
L 9.421875 0 
z
M 9.421875 75.984375 
L 18.40625 75.984375 
L 18.40625 64.59375 
L 9.421875 64.59375 
z
" id="DejaVuSans-69"/>
      <path d="M 34.28125 27.484375 
Q 23.390625 27.484375 19.1875 25 
Q 14.984375 22.515625 14.984375 16.5 
Q 14.984375 11.71875 18.140625 8.90625 
Q 21.296875 6.109375 26.703125 6.109375 
Q 34.1875 6.109375 38.703125 11.40625 
Q 43.21875 16.703125 43.21875 25.484375 
L 43.21875 27.484375 
z
M 52.203125 31.203125 
L 52.203125 0 
L 43.21875 0 
L 43.21875 8.296875 
Q 40.140625 3.328125 35.546875 0.953125 
Q 30.953125 -1.421875 24.3125 -1.421875 
Q 15.921875 -1.421875 10.953125 3.296875 
Q 6 8.015625 6 15.921875 
Q 6 25.140625 12.171875 29.828125 
Q 18.359375 34.515625 30.609375 34.515625 
L 43.21875 34.515625 
L 43.21875 35.40625 
Q 43.21875 41.609375 39.140625 45 
Q 35.0625 48.390625 27.6875 48.390625 
Q 23 48.390625 18.546875 47.265625 
Q 14.109375 46.140625 10.015625 43.890625 
L 10.015625 52.203125 
Q 14.9375 54.109375 19.578125 55.046875 
Q 24.21875 56 28.609375 56 
Q 40.484375 56 46.34375 49.84375 
Q 52.203125 43.703125 52.203125 31.203125 
" id="DejaVuSans-61"/>
      <path d="M 54.890625 33.015625 
L 54.890625 0 
L 45.90625 0 
L 45.90625 32.71875 
Q 45.90625 40.484375 42.875 44.328125 
Q 39.84375 48.1875 33.796875 48.1875 
Q 26.515625 48.1875 22.3125 43.546875 
Q 18.109375 38.921875 18.109375 30.90625 
L 18.109375 0 
L 9.078125 0 
L 9.078125 54.6875 
L 18.109375 54.6875 
L 18.109375 46.1875 
Q 21.34375 51.125 25.703125 53.5625 
Q 30.078125 56 35.796875 56 
Q 45.21875 56 50.046875 50.171875 
Q 54.890625 44.34375 54.890625 33.015625 
" id="DejaVuSans-6e"/>
      <path d="M 5.515625 54.6875 
L 48.1875 54.6875 
L 48.1875 46.484375 
L 14.40625 7.171875 
L 48.1875 7.171875 
L 48.1875 0 
L 4.296875 0 
L 4.296875 8.203125 
L 38.09375 47.515625 
L 5.515625 47.515625 
z
" id="DejaVuSans-7a"/>
      <path id="DejaVuSans-20"/>
      <path d="M 19.671875 64.796875 
L 19.671875 37.40625 
L 32.078125 37.40625 
Q 38.96875 37.40625 42.71875 40.96875 
Q 46.484375 44.53125 46.484375 51.125 
Q 46.484375 57.671875 42.71875 61.234375 
Q 38.96875 64.796875 32.078125 64.796875 
z
M 9.8125 72.90625 
L 32.078125 72.90625 
Q 44.34375 72.90625 50.609375 67.359375 
Q 56.890625 61.8125 56.890625 51.125 
Q 56.890625 40.328125 50.609375 34.8125 
Q 44.34375 29.296875 32.078125 29.296875 
L 19.671875 29.296875 
L 19.671875 0 
L 9.8125 0 
z
" id="DejaVuSans-50"/>
      <path d="M 9.8125 72.90625 
L 19.671875 72.90625 
L 19.671875 0 
L 9.8125 0 
z
" id="DejaVuSans-49"/>
      <path d="M 9.8125 72.90625 
L 24.515625 72.90625 
L 43.109375 23.296875 
L 61.8125 72.90625 
L 76.515625 72.90625 
L 76.515625 0 
L 66.890625 0 
L 66.890625 64.015625 
L 48.09375 14.015625 
L 38.1875 14.015625 
L 19.390625 64.015625 
L 19.390625 0 
L 9.8125 0 
z
" id="DejaVuSans-4d"/>
      <path d="M 64.40625 67.28125 
L 64.40625 56.890625 
Q 59.421875 61.53125 53.78125 63.8125 
Q 48.140625 66.109375 41.796875 66.109375 
Q 29.296875 66.109375 22.65625 58.46875 
Q 16.015625 50.828125 16.015625 36.375 
Q 16.015625 21.96875 22.65625 14.328125 
Q 29.296875 6.6875 41.796875 6.6875 
Q 48.140625 6.6875 53.78125 8.984375 
Q 59.421875 11.28125 64.40625 15.921875 
L 64.40625 5.609375 
Q 59.234375 2.09375 53.4375 0.328125 
Q 47.65625 -1.421875 41.21875 -1.421875 
Q 24.65625 -1.421875 15.125 8.703125 
Q 5.609375 18.84375 5.609375 36.375 
Q 5.609375 53.953125 15.125 64.078125 
Q 24.65625 74.21875 41.21875 74.21875 
Q 47.75 74.21875 53.53125 72.484375 
Q 59.328125 70.75 64.40625 67.28125 
" id="DejaVuSans-43"/>
      <path d="M 39.40625 66.21875 
Q 28.65625 66.21875 22.328125 58.203125 
Q 16.015625 50.203125 16.015625 36.375 
Q 16.015625 22.609375 22.328125 14.59375 
Q 28.65625 6.59375 39.40625 6.59375 
Q 50.140625 6.59375 56.421875 14.59375 
Q 62.703125 22.609375 62.703125 36.375 
Q 62.703125 50.203125 56.421875 58.203125 
Q 50.140625 66.21875 39.40625 66.21875 
M 39.40625 74.21875 
Q 54.734375 74.21875 63.90625 63.9375 
Q 73.09375 53.65625 73.09375 36.375 
Q 73.09375 19.140625 63.90625 8.859375 
Q 54.734375 -1.421875 39.40625 -1.421875 
Q 24.03125 -1.421875 14.8125 8.828125 
Q 5.609375 19.09375 5.609375 36.375 
Q 5.609375 53.65625 14.8125 63.9375 
Q 24.03125 74.21875 39.40625 74.21875 
" id="DejaVuSans-4f"/>
      <path d="M 48.78125 52.59375 
L 48.78125 44.1875 
Q 44.96875 46.296875 41.140625 47.34375 
Q 37.3125 48.390625 33.40625 48.390625 
Q 24.65625 48.390625 19.8125 42.84375 
Q 14.984375 37.3125 14.984375 27.296875 
Q 14.984375 17.28125 19.8125 11.734375 
Q 24.65625 6.203125 33.40625 6.203125 
Q 37.3125 6.203125 41.140625 7.25 
Q 44.96875 8.296875 48.78125 10.40625 
L 48.78125 2.09375 
Q 45.015625 0.34375 40.984375 -0.53125 
Q 36.96875 -1.421875 32.421875 -1.421875 
Q 20.0625 -1.421875 12.78125 6.34375 
Q 5.515625 14.109375 5.515625 27.296875 
Q 5.515625 40.671875 12.859375 48.328125 
Q 20.21875 56 33.015625 56 
Q 37.15625 56 41.109375 55.140625 
Q 45.0625 54.296875 48.78125 52.59375 
" id="DejaVuSans-63"/>
      <path d="M 30.609375 48.390625 
Q 23.390625 48.390625 19.1875 42.75 
Q 14.984375 37.109375 14.984375 27.296875 
Q 14.984375 17.484375 19.15625 11.84375 
Q 23.34375 6.203125 30.609375 6.203125 
Q 37.796875 6.203125 41.984375 11.859375 
Q 46.1875 17.53125 46.1875 27.296875 
Q 46.1875 37.015625 41.984375 42.703125 
Q 37.796875 48.390625 30.609375 48.390625 
M 30.609375 56 
Q 42.328125 56 49.015625 48.375 
Q 55.71875 40.765625 55.71875 27.296875 
Q 55.71875 13.875 49.015625 6.21875 
Q 42.328125 -1.421875 30.609375 -1.421875 
Q 18.84375 -1.421875 12.171875 6.21875 
Q 5.515625 13.875 5.515625 27.296875 
Q 5.515625 40.765625 12.171875 48.375 
Q 18.84375 56 30.609375 56 
" id="DejaVuSans-6f"/>
      <path d="M 52 44.1875 
Q 55.375 50.25 60.0625 53.125 
Q 64.75 56 71.09375 56 
Q 79.640625 56 84.28125 50.015625 
Q 88.921875 44.046875 88.921875 33.015625 
L 88.921875 0 
L 79.890625 0 
L 79.890625 32.71875 
Q 79.890625 40.578125 77.09375 44.375 
Q 74.3125 48.1875 68.609375 48.1875 
Q 61.625 48.1875 57.5625 43.546875 
Q 53.515625 38.921875 53.515625 30.90625 
L 53.515625 0 
L 44.484375 0 
L 44.484375 32.71875 
Q 44.484375 40.625 41.703125 44.40625 
Q 38.921875 48.1875 33.109375 48.1875 
Q 26.21875 48.1875 22.15625 43.53125 
Q 18.109375 38.875 18.109375 30.90625 
L 18.109375 0 
L 9.078125 0 
L 9.078125 54.6875 
L 18.109375 54.6875 
L 18.109375 46.1875 
Q 21.1875 51.21875 25.484375 53.609375 
Q 29.78125 56 35.6875 56 
Q 41.65625 56 45.828125 52.96875 
Q 50 49.953125 52 44.1875 
" id="DejaVuSans-6d"/>
      <path d="M 56.203125 29.59375 
L 56.203125 25.203125 
L 14.890625 25.203125 
Q 15.484375 15.921875 20.484375 11.0625 
Q 25.484375 6.203125 34.421875 6.203125 
Q 39.59375 6.203125 44.453125 7.46875 
Q 49.3125 8.734375 54.109375 11.28125 
L 54.109375 2.78125 
Q 49.265625 0.734375 44.1875 -0.34375 
Q 39.109375 -1.421875 33.890625 -1.421875 
Q 20.796875 -1.421875 13.15625 6.1875 
Q 5.515625 13.8125 5.515625 26.8125 
Q 5.515625 40.234375 12.765625 48.109375 
Q 20.015625 56 32.328125 56 
Q 43.359375 56 49.78125 48.890625 
Q 56.203125 41.796875 56.203125 29.59375 
M 47.21875 32.234375 
Q 47.125 39.59375 43.09375 43.984375 
Q 39.0625 48.390625 32.421875 48.390625 
Q 24.90625 48.390625 20.390625 44.140625 
Q 15.875 39.890625 15.1875 32.171875 
z
" id="DejaVuSans-65"/>
     </defs>
     <g transform="translate(111.832812 340.813125)rotate(-90)scale(0.1 -0.1)">
      <use xlink:href="#DejaVuSans-41"/>
      <use x="68.408203" xlink:href="#DejaVuSans-6c"/>
      <use x="96.191406" xlink:href="#DejaVuSans-6c"/>
      <use x="123.974609" xlink:href="#DejaVuSans-69"/>
      <use x="151.757812" xlink:href="#DejaVuSans-61"/>
      <use x="213.037109" xlink:href="#DejaVuSans-6e"/>
      <use x="276.416016" xlink:href="#DejaVuSans-7a"/>
      <use x="328.90625" xlink:href="#DejaVuSans-20"/>
      <use x="360.693359" xlink:href="#DejaVuSans-50"/>
      <use x="420.996094" xlink:href="#DejaVuSans-49"/>
      <use x="450.488281" xlink:href="#DejaVuSans-4d"/>
      <use x="536.767578" xlink:href="#DejaVuSans-43"/>
      <use x="606.591797" xlink:href="#DejaVuSans-4f"/>
      <use x="685.302734" xlink:href="#DejaVuSans-20"/>
      <use x="717.089844" xlink:href="#DejaVuSans-49"/>
      <use x="746.582031" xlink:href="#DejaVuSans-6e"/>
      <use x="809.960938" xlink:href="#DejaVuSans-63"/>
      <use x="864.941406" xlink:href="#DejaVuSans-6f"/>
      <use x="926.123047" xlink:href="#DejaVuSans-6d"/>
      <use x="1023.535156" xlink:href="#DejaVuSans-65"/>
     </g>
    </g>
   </g>
   <g id="line2d_19">
    <path clip-path="url(#p72a76f5c04)" d="M 184.581818 484.232727 
L 186.098895 484.232727 
L 187.615973 484.232727 
L 189.13305 483.699198 
L 192.167205 483.699198 
L 193.684282 483.165668 
L 196.718437 483.165668 
L 198.235514 482.632138 
L 202.786746 482.632138 
L 204.303823 482.098609 
L 213.406287 482.098609 
L 214.923364 481.565079 
L 216.440442 481.565079 
L 217.957519 481.03155 
L 225.542906 481.03155 
L 227.059983 480.49802 
L 228.57706 480.49802 
L 230.094138 475.696253 
L 231.611215 475.162724 
L 234.64537 475.162724 
L 236.162447 479.430961 
L 237.679524 474.629194 
L 239.196602 470.360957 
L 240.713679 469.827427 
L 242.230756 472.495075 
L 245.264911 472.495075 
L 246.781988 468.226838 
L 248.299065 463.425072 
L 249.816143 459.156835 
L 251.33322 458.089775 
L 252.850297 449.019772 
L 255.884452 449.019772 
L 257.401529 450.620361 
L 258.918607 448.486242 
L 261.952761 448.486242 
L 263.469839 456.489187 
L 266.503993 456.489187 
L 268.021071 462.358013 
L 269.538148 466.09272 
L 272.572302 466.09272 
L 274.08938 470.360957 
L 277.123534 470.360957 
L 278.640612 467.159779 
L 280.157689 467.159779 
L 281.674766 457.022716 
L 283.191844 441.016827 
L 284.708921 439.949768 
L 287.743076 439.949768 
L 289.260153 443.684476 
L 290.77723 445.285064 
L 292.294308 437.81565 
L 293.811385 439.949768 
L 295.328462 424.477409 
L 298.362617 424.477409 
L 299.879694 421.809761 
L 302.913849 420.742702 
L 304.430926 416.474464 
L 305.948003 420.742702 
L 308.982158 420.742702 
L 312.016313 421.809761 
L 313.53339 421.276231 
L 315.050467 420.209172 
L 316.567545 416.474464 
L 321.118777 416.474464 
L 322.635854 413.806816 
L 324.152931 409.538579 
L 325.670008 404.736813 
L 327.187086 404.203283 
L 330.22124 404.203283 
L 331.738318 401.535635 
L 333.255395 402.069165 
L 334.772472 405.803872 
L 336.28955 407.93799 
L 337.806627 408.47152 
L 340.840782 408.47152 
L 342.357859 413.273287 
L 343.874936 413.273287 
L 345.392014 425.544468 
L 346.909091 424.477409 
L 348.426168 425.544468 
L 351.460323 425.544468 
L 352.9774 409.538579 
L 354.494477 410.072109 
L 356.011555 416.474464 
L 357.528632 431.946824 
L 362.079864 431.946824 
L 363.596941 451.15389 
L 365.114019 438.349179 
L 366.631096 433.547413 
L 368.148173 433.013883 
L 369.665251 441.016827 
L 372.699405 441.016827 
L 374.216483 441.550357 
L 375.73356 434.080942 
L 377.250637 434.080942 
L 378.767715 433.547413 
L 383.318946 433.547413 
L 384.836024 430.346235 
L 386.353101 429.812705 
L 387.870178 421.809761 
L 389.387256 428.745646 
L 390.904333 423.943879 
L 393.938488 423.943879 
L 395.455565 420.209172 
L 396.972642 411.672698 
L 398.48972 402.069165 
L 400.006797 396.733868 
L 401.523874 401.002105 
L 407.592184 401.002105 
L 409.109261 405.803872 
L 410.626338 412.739757 
L 412.143415 409.00505 
L 415.17757 409.00505 
L 416.694647 406.337402 
L 418.211725 402.069165 
L 419.728802 402.069165 
L 421.245879 401.535635 
L 422.762957 397.800927 
L 427.314189 397.800927 
L 428.831266 399.401516 
L 430.348343 392.999161 
L 431.865421 387.130335 
L 433.382498 379.127391 
L 439.450807 379.127391 
L 440.967884 383.395628 
L 442.484962 374.325624 
L 447.036194 374.325624 
L 448.553271 366.856209 
L 450.070348 371.124446 
L 451.587426 366.856209 
L 453.104503 366.856209 
L 454.62158 362.587972 
L 457.655735 362.587972 
L 459.172812 363.121502 
L 460.68989 363.121502 
L 462.206967 371.124446 
L 463.724044 374.325624 
L 465.241121 370.590916 
L 468.275276 370.590916 
L 469.792353 363.121502 
L 471.309431 366.856209 
L 472.826508 363.121502 
L 474.343585 358.853265 
L 475.860663 355.118557 
L 478.894817 355.118557 
L 480.411895 351.917379 
L 481.928972 351.917379 
L 483.446049 352.450909 
L 484.963127 348.182672 
L 486.480204 344.981494 
L 489.514359 344.981494 
L 491.031436 338.045609 
L 492.548513 338.045609 
L 494.06559 333.243842 
L 495.582668 332.176783 
L 500.1339 332.176783 
L 501.650977 328.975605 
L 503.168054 333.243842 
L 504.685132 333.243842 
L 506.202209 331.643254 
L 507.719286 327.375017 
L 510.753441 327.375017 
L 512.270518 327.908546 
L 513.787596 320.439131 
L 515.304673 317.237954 
L 516.82175 307.63442 
L 518.338828 292.162061 
L 521.372982 292.162061 
L 522.890059 296.430298 
L 524.407137 296.430298 
L 525.924214 300.698535 
L 527.441291 304.433243 
L 528.958369 295.896768 
L 531.992523 295.896768 
L 533.509601 296.430298 
L 535.026678 304.433243 
L 536.543755 308.16795 
L 538.060833 319.372072 
L 539.57791 310.835598 
L 542.612065 310.835598 
L 544.129142 314.570305 
L 545.646219 315.103835 
L 547.163297 299.631476 
L 548.680374 299.097946 
L 550.197451 295.896768 
L 553.231606 295.896768 
L 554.748683 292.695591 
L 556.26576 293.22912 
L 557.782838 288.960883 
L 559.299915 288.427354 
L 560.816992 280.957939 
L 563.851147 280.957939 
L 565.368224 284.692646 
L 566.885302 284.692646 
L 568.402379 277.756761 
L 569.919456 273.488524 
L 571.436534 274.022054 
L 574.470688 274.022054 
L 575.987766 266.019109 
L 577.504843 265.48558 
L 579.02192 261.750872 
L 580.538997 266.019109 
L 582.056075 266.552639 
L 585.090229 266.552639 
L 586.607307 267.619698 
L 588.124384 262.817932 
L 589.641461 261.217343 
L 591.158539 253.747928 
L 597.226848 253.747928 
L 598.743925 254.281457 
L 600.261003 258.016165 
L 601.77808 256.949106 
L 603.295157 252.680869 
L 606.329312 252.680869 
L 607.846389 245.744983 
L 609.363466 250.01322 
L 610.880544 246.812043 
L 612.397621 245.744983 
L 613.914698 238.275569 
L 618.46593 238.275569 
L 619.983008 234.540861 
L 621.500085 234.540861 
L 623.017162 242.010276 
L 624.53424 234.007332 
L 627.568394 234.007332 
L 629.085472 238.809098 
L 630.602549 237.742039 
L 632.119626 234.007332 
L 633.636703 229.739095 
L 635.153781 221.73615 
L 638.187935 221.73615 
L 641.22209 215.333795 
L 642.739167 215.333795 
L 644.256245 225.470858 
L 645.773322 218.001443 
L 648.807477 218.001443 
L 650.324554 214.800265 
L 651.841631 214.800265 
L 653.358709 206.797321 
L 654.875786 202.529084 
L 659.427018 202.529084 
L 662.461172 203.596143 
L 663.97825 199.327906 
L 665.495327 194.526139 
L 667.012404 190.257902 
L 670.046559 190.257902 
L 671.563636 191.324961 
L 673.080714 186.523195 
L 674.597791 190.257902 
L 676.114868 189.190843 
L 677.631946 186.523195 
L 680.6661 186.523195 
L 682.183178 190.257902 
L 683.700255 185.989665 
L 685.217332 177.986721 
L 686.73441 177.986721 
L 688.251487 180.654369 
L 691.285641 180.654369 
L 692.802719 177.453191 
L 694.319796 181.187898 
L 695.836873 184.389076 
L 697.353951 179.58731 
L 698.871028 172.117895 
L 701.905183 172.117895 
L 703.42226 168.916717 
L 704.939337 176.386132 
L 706.456415 175.852602 
L 707.973492 183.855547 
L 709.490569 188.123784 
L 715.558879 188.123784 
L 717.075956 187.590254 
L 718.593033 195.593198 
L 720.11011 191.858491 
L 723.144265 191.858491 
L 724.661342 188.123784 
L 729.212574 175.319073 
L 730.729652 171.584365 
L 733.763806 171.584365 
L 735.280884 172.117895 
L 736.797961 172.117895 
L 738.315038 167.849658 
L 739.832116 167.316128 
L 741.349193 163.581421 
L 744.383347 163.581421 
L 747.417502 171.050835 
L 748.934579 163.581421 
L 750.451657 162.514361 
L 751.968734 163.047891 
L 755.002889 163.047891 
L 756.519966 163.581421 
L 758.037043 159.313184 
L 759.554121 159.313184 
L 761.071198 158.779654 
L 762.588275 155.044947 
L 765.62243 155.044947 
L 767.139507 151.310239 
L 768.656585 151.310239 
L 770.173662 155.044947 
L 771.690739 158.246124 
L 776.241971 158.246124 
L 777.759048 155.044947 
L 779.276126 155.044947 
L 780.793203 147.042002 
L 782.31028 150.77671 
L 783.827358 153.977887 
L 786.861512 153.977887 
L 788.37859 150.77671 
L 789.895667 142.240236 
L 791.412744 142.773765 
L 792.929822 141.706706 
L 794.446899 134.237291 
L 800.515208 134.237291 
L 802.032285 130.502584 
L 803.549363 125.700817 
L 805.06644 126.234347 
L 809.617672 126.234347 
L 811.134749 126.767876 
L 812.651827 126.767876 
L 814.168904 122.499639 
L 815.685981 121.96611 
L 818.720136 121.96611 
L 820.237213 122.499639 
L 821.754291 122.499639 
L 823.271368 121.96611 
L 824.788445 120.89905 
L 829.339677 120.89905 
L 830.856754 121.43258 
L 832.373832 121.43258 
L 833.890909 126.234347 
L 835.407986 125.167287 
L 836.925064 121.96611 
L 839.959218 121.96611 
L 841.476296 118.764932 
L 842.993373 118.764932 
L 844.51045 123.033169 
L 846.027528 121.96611 
L 847.544605 117.697873 
L 850.57876 117.697873 
L 852.095837 118.231402 
L 853.612914 114.496695 
L 856.647069 113.429636 
L 858.164146 117.697873 
L 862.715378 117.697873 
L 864.232455 118.231402 
L 865.749533 118.231402 
L 867.26661 117.697873 
L 868.783687 105.960221 
L 871.817842 105.960221 
L 873.334919 114.496695 
L 876.369074 107.02728 
L 877.886151 110.228458 
L 882.437383 110.228458 
L 883.95446 106.49375 
L 885.471538 110.761987 
L 886.988615 114.496695 
L 888.505692 113.429636 
L 890.02277 109.161399 
L 893.056924 109.161399 
L 894.574002 102.225513 
L 896.091079 97.957276 
L 897.608156 97.957276 
L 899.125234 93.689039 
L 905.193543 93.689039 
L 908.227698 102.225513 
L 909.744775 105.960221 
L 911.261852 113.963165 
L 914.296007 113.963165 
L 915.813084 118.764932 
L 917.330161 122.499639 
L 921.881393 109.694928 
L 924.915548 109.694928 
L 926.432625 110.228458 
L 927.949703 106.49375 
L 929.46678 97.957276 
L 930.983857 97.423747 
L 932.500935 93.689039 
L 935.535089 93.689039 
L 937.052167 94.222569 
L 940.086321 94.222569 
L 941.603398 101.691984 
L 943.120476 97.423747 
L 946.15463 97.423747 
L 947.671708 97.957276 
L 949.188785 97.957276 
L 950.705862 92.62198 
L 952.22294 95.823158 
L 953.740017 91.554921 
L 956.774172 91.554921 
L 958.291249 95.823158 
L 959.808326 95.823158 
L 961.325404 88.887273 
L 962.842481 97.423747 
L 964.359558 97.957276 
L 967.393713 97.957276 
L 968.91079 95.823158 
L 970.427867 104.893162 
L 971.944945 110.761987 
L 973.462022 106.49375 
L 974.979099 111.829047 
L 981.047409 111.829047 
L 982.564486 107.02728 
L 984.081563 108.627869 
L 985.598641 104.893162 
L 991.66695 104.893162 
L 993.184027 96.890217 
L 994.701105 92.62198 
L 996.218182 92.62198 
L 996.218182 92.62198 
" style="fill:none;stroke:#1f77b4;stroke-linecap:square;stroke-width:1.5;"/>
   </g>
   <g id="patch_3">
    <path d="M 144 504 
L 144 69.12 
" style="fill:none;stroke:#000000;stroke-linecap:square;stroke-linejoin:miter;stroke-width:0.8;"/>
   </g>
   <g id="patch_4">
    <path d="M 1036.8 504 
L 1036.8 69.12 
" style="fill:none;stroke:#000000;stroke-linecap:square;stroke-linejoin:miter;stroke-width:0.8;"/>
   </g>
   <g id="patch_5">
    <path d="M 144 504 
L 1036.8 504 
" style="fill:none;"/>
   </g>
   <g id="patch_6">
    <path d="M 144 69.12 
L 1036.8 69.12 
" style="fill:none;"/>
   </g>
  </g>
  <g id="axes_2">
   <g id="matplotlib.axis_3">
    <g id="ytick_9">
     <g id="line2d_20">
      <defs>
       <path d="M 0 0 
L 3.5 0 
" id="mdf3b1b4a89" style="stroke:#000000;stroke-width:0.8;"/>
      </defs>
      <g>
       <use style="stroke:#000000;stroke-width:0.8;" x="1036.8" xlink:href="#mdf3b1b4a89" y="496.212893"/>
      </g>
     </g>
     <g id="text_20">
      <!-- 0.6 -->
      <defs>
       <path d="M 10.6875 12.40625 
L 21 12.40625 
L 21 0 
L 10.6875 0 
z
" id="DejaVuSans-2e"/>
      </defs>
      <g style="fill:#ff0000;" transform="translate(1043.8 500.012111)scale(0.1 -0.1)">
       <use xlink:href="#DejaVuSans-30"/>
       <use x="63.623047" xlink:href="#DejaVuSans-2e"/>
       <use x="95.410156" xlink:href="#DejaVuSans-36"/>
      </g>
     </g>
    </g>
    <g id="ytick_10">
     <g id="line2d_21">
      <g>
       <use style="stroke:#000000;stroke-width:0.8;" x="1036.8" xlink:href="#mdf3b1b4a89" y="436.312066"/>
      </g>
     </g>
     <g id="text_21">
      <!-- 0.8 -->
      <g style="fill:#ff0000;" transform="translate(1043.8 440.111285)scale(0.1 -0.1)">
       <use xlink:href="#DejaVuSans-30"/>
       <use x="63.623047" xlink:href="#DejaVuSans-2e"/>
       <use x="95.410156" xlink:href="#DejaVuSans-38"/>
      </g>
     </g>
    </g>
    <g id="ytick_11">
     <g id="line2d_22">
      <g>
       <use style="stroke:#000000;stroke-width:0.8;" x="1036.8" xlink:href="#mdf3b1b4a89" y="376.41124"/>
      </g>
     </g>
     <g id="text_22">
      <!-- 1.0 -->
      <g style="fill:#ff0000;" transform="translate(1043.8 380.210458)scale(0.1 -0.1)">
       <use xlink:href="#DejaVuSans-31"/>
       <use x="63.623047" xlink:href="#DejaVuSans-2e"/>
       <use x="95.410156" xlink:href="#DejaVuSans-30"/>
      </g>
     </g>
    </g>
    <g id="ytick_12">
     <g id="line2d_23">
      <g>
       <use style="stroke:#000000;stroke-width:0.8;" x="1036.8" xlink:href="#mdf3b1b4a89" y="316.510413"/>
      </g>
     </g>
     <g id="text_23">
      <!-- 1.2 -->
      <g style="fill:#ff0000;" transform="translate(1043.8 320.309632)scale(0.1 -0.1)">
       <use xlink:href="#DejaVuSans-31"/>
       <use x="63.623047" xlink:href="#DejaVuSans-2e"/>
       <use x="95.410156" xlink:href="#DejaVuSans-32"/>
      </g>
     </g>
    </g>
    <g id="ytick_13">
     <g id="line2d_24">
      <g>
       <use style="stroke:#000000;stroke-width:0.8;" x="1036.8" xlink:href="#mdf3b1b4a89" y="256.609587"/>
      </g>
     </g>
     <g id="text_24">
      <!-- 1.4 -->
      <g style="fill:#ff0000;" transform="translate(1043.8 260.408806)scale(0.1 -0.1)">
       <use xlink:href="#DejaVuSans-31"/>
       <use x="63.623047" xlink:href="#DejaVuSans-2e"/>
       <use x="95.410156" xlink:href="#DejaVuSans-34"/>
      </g>
     </g>
    </g>
    <g id="ytick_14">
     <g id="line2d_25">
      <g>
       <use style="stroke:#000000;stroke-width:0.8;" x="1036.8" xlink:href="#mdf3b1b4a89" y="196.70876"/>
      </g>
     </g>
     <g id="text_25">
      <!-- 1.6 -->
      <g style="fill:#ff0000;" transform="translate(1043.8 200.507979)scale(0.1 -0.1)">
       <use xlink:href="#DejaVuSans-31"/>
       <use x="63.623047" xlink:href="#DejaVuSans-2e"/>
       <use x="95.410156" xlink:href="#DejaVuSans-36"/>
      </g>
     </g>
    </g>
    <g id="ytick_15">
     <g id="line2d_26">
      <g>
       <use style="stroke:#000000;stroke-width:0.8;" x="1036.8" xlink:href="#mdf3b1b4a89" y="136.807934"/>
      </g>
     </g>
     <g id="text_26">
      <!-- 1.8 -->
      <g style="fill:#ff0000;" transform="translate(1043.8 140.607153)scale(0.1 -0.1)">
       <use xlink:href="#DejaVuSans-31"/>
       <use x="63.623047" xlink:href="#DejaVuSans-2e"/>
       <use x="95.410156" xlink:href="#DejaVuSans-38"/>
      </g>
     </g>
    </g>
    <g id="ytick_16">
     <g id="line2d_27">
      <g>
       <use style="stroke:#000000;stroke-width:0.8;" x="1036.8" xlink:href="#mdf3b1b4a89" y="76.907107"/>
      </g>
     </g>
     <g id="text_27">
      <!-- 2.0 -->
      <g style="fill:#ff0000;" transform="translate(1043.8 80.706326)scale(0.1 -0.1)">
       <use xlink:href="#DejaVuSans-32"/>
       <use x="63.623047" xlink:href="#DejaVuSans-2e"/>
       <use x="95.410156" xlink:href="#DejaVuSans-30"/>
      </g>
     </g>
    </g>
    <g id="text_28">
     <!-- 2Y US Govt -->
     <defs>
      <path d="M -0.203125 72.90625 
L 10.40625 72.90625 
L 30.609375 42.921875 
L 50.6875 72.90625 
L 61.28125 72.90625 
L 35.5 34.71875 
L 35.5 0 
L 25.59375 0 
L 25.59375 34.71875 
z
" id="DejaVuSans-59"/>
      <path d="M 8.6875 72.90625 
L 18.609375 72.90625 
L 18.609375 28.609375 
Q 18.609375 16.890625 22.84375 11.734375 
Q 27.09375 6.59375 36.625 6.59375 
Q 46.09375 6.59375 50.34375 11.734375 
Q 54.59375 16.890625 54.59375 28.609375 
L 54.59375 72.90625 
L 64.5 72.90625 
L 64.5 27.390625 
Q 64.5 13.140625 57.4375 5.859375 
Q 50.390625 -1.421875 36.625 -1.421875 
Q 22.796875 -1.421875 15.734375 5.859375 
Q 8.6875 13.140625 8.6875 27.390625 
z
" id="DejaVuSans-55"/>
      <path d="M 53.515625 70.515625 
L 53.515625 60.890625 
Q 47.90625 63.578125 42.921875 64.890625 
Q 37.9375 66.21875 33.296875 66.21875 
Q 25.25 66.21875 20.875 63.09375 
Q 16.5 59.96875 16.5 54.203125 
Q 16.5 49.359375 19.40625 46.890625 
Q 22.3125 44.4375 30.421875 42.921875 
L 36.375 41.703125 
Q 47.40625 39.59375 52.65625 34.296875 
Q 57.90625 29 57.90625 20.125 
Q 57.90625 9.515625 50.796875 4.046875 
Q 43.703125 -1.421875 29.984375 -1.421875 
Q 24.8125 -1.421875 18.96875 -0.25 
Q 13.140625 0.921875 6.890625 3.21875 
L 6.890625 13.375 
Q 12.890625 10.015625 18.65625 8.296875 
Q 24.421875 6.59375 29.984375 6.59375 
Q 38.421875 6.59375 43.015625 9.90625 
Q 47.609375 13.234375 47.609375 19.390625 
Q 47.609375 24.75 44.3125 27.78125 
Q 41.015625 30.8125 33.5 32.328125 
L 27.484375 33.5 
Q 16.453125 35.6875 11.515625 40.375 
Q 6.59375 45.0625 6.59375 53.421875 
Q 6.59375 63.09375 13.40625 68.65625 
Q 20.21875 74.21875 32.171875 74.21875 
Q 37.3125 74.21875 42.625 73.28125 
Q 47.953125 72.359375 53.515625 70.515625 
" id="DejaVuSans-53"/>
      <path d="M 59.515625 10.40625 
L 59.515625 29.984375 
L 43.40625 29.984375 
L 43.40625 38.09375 
L 69.28125 38.09375 
L 69.28125 6.78125 
Q 63.578125 2.734375 56.6875 0.65625 
Q 49.8125 -1.421875 42 -1.421875 
Q 24.90625 -1.421875 15.25 8.5625 
Q 5.609375 18.5625 5.609375 36.375 
Q 5.609375 54.25 15.25 64.234375 
Q 24.90625 74.21875 42 74.21875 
Q 49.125 74.21875 55.546875 72.453125 
Q 61.96875 70.703125 67.390625 67.28125 
L 67.390625 56.78125 
Q 61.921875 61.421875 55.765625 63.765625 
Q 49.609375 66.109375 42.828125 66.109375 
Q 29.4375 66.109375 22.71875 58.640625 
Q 16.015625 51.171875 16.015625 36.375 
Q 16.015625 21.625 22.71875 14.15625 
Q 29.4375 6.6875 42.828125 6.6875 
Q 48.046875 6.6875 52.140625 7.59375 
Q 56.25 8.5 59.515625 10.40625 
" id="DejaVuSans-47"/>
      <path d="M 2.984375 54.6875 
L 12.5 54.6875 
L 29.59375 8.796875 
L 46.6875 54.6875 
L 56.203125 54.6875 
L 35.6875 0 
L 23.484375 0 
z
" id="DejaVuSans-76"/>
      <path d="M 18.3125 70.21875 
L 18.3125 54.6875 
L 36.8125 54.6875 
L 36.8125 47.703125 
L 18.3125 47.703125 
L 18.3125 18.015625 
Q 18.3125 11.328125 20.140625 9.421875 
Q 21.96875 7.515625 27.59375 7.515625 
L 36.8125 7.515625 
L 36.8125 0 
L 27.59375 0 
Q 17.1875 0 13.234375 3.875 
Q 9.28125 7.765625 9.28125 18.015625 
L 9.28125 47.703125 
L 2.6875 47.703125 
L 2.6875 54.6875 
L 9.28125 54.6875 
L 9.28125 70.21875 
z
" id="DejaVuSans-74"/>
     </defs>
     <g style="fill:#ff0000;" transform="translate(1071.301563 314.66)rotate(-90)scale(0.1 -0.1)">
      <use xlink:href="#DejaVuSans-32"/>
      <use x="63.623047" xlink:href="#DejaVuSans-59"/>
      <use x="124.707031" xlink:href="#DejaVuSans-20"/>
      <use x="156.494141" xlink:href="#DejaVuSans-55"/>
      <use x="229.6875" xlink:href="#DejaVuSans-53"/>
      <use x="293.164062" xlink:href="#DejaVuSans-20"/>
      <use x="324.951172" xlink:href="#DejaVuSans-47"/>
      <use x="402.441406" xlink:href="#DejaVuSans-6f"/>
      <use x="463.623047" xlink:href="#DejaVuSans-76"/>
      <use x="522.802734" xlink:href="#DejaVuSans-74"/>
     </g>
    </g>
   </g>
   <g id="line2d_28">
    <path clip-path="url(#p72a76f5c04)" d="M 184.581818 466.262479 
L 186.098895 457.277355 
L 187.615973 466.262479 
L 189.13305 463.267438 
L 192.167205 463.267438 
L 193.684282 460.272397 
L 195.201359 451.287273 
L 196.718437 457.277355 
L 198.235514 460.272397 
L 199.752591 475.247603 
L 207.337978 475.247603 
L 208.855055 484.232727 
L 210.372133 460.272397 
L 213.406287 460.272397 
L 214.923364 454.282314 
L 216.440442 463.267438 
L 217.957519 469.257521 
L 219.474596 448.292231 
L 220.991674 463.267438 
L 224.025828 463.267438 
L 225.542906 460.272397 
L 227.059983 448.292231 
L 228.57706 454.282314 
L 230.094138 463.267438 
L 231.611215 448.292231 
L 236.162447 448.292231 
L 237.679524 454.282314 
L 240.713679 442.302149 
L 242.230756 424.331901 
L 245.264911 424.331901 
L 246.781988 433.317025 
L 248.299065 436.312066 
L 249.816143 436.312066 
L 251.33322 442.302149 
L 252.850297 436.312066 
L 257.401529 436.312066 
L 258.918607 454.282314 
L 260.435684 454.282314 
L 261.952761 442.302149 
L 263.469839 439.307107 
L 268.021071 439.307107 
L 269.538148 436.312066 
L 272.572302 454.282314 
L 274.08938 445.29719 
L 277.123534 445.29719 
L 278.640612 439.307107 
L 283.191844 439.307107 
L 284.708921 445.29719 
L 287.743076 445.29719 
L 290.77723 451.287273 
L 292.294308 451.287273 
L 293.811385 457.277355 
L 295.328462 445.29719 
L 298.362617 445.29719 
L 299.879694 436.312066 
L 301.396771 430.321983 
L 302.913849 421.33686 
L 304.430926 418.341818 
L 305.948003 427.326942 
L 310.499235 427.326942 
L 312.016313 415.346777 
L 313.53339 415.346777 
L 315.050467 421.33686 
L 316.567545 424.331901 
L 319.601699 424.331901 
L 321.118777 433.317025 
L 322.635854 430.321983 
L 324.152931 433.317025 
L 325.670008 424.331901 
L 331.738318 424.331901 
L 333.255395 418.341818 
L 334.772472 418.341818 
L 336.28955 415.346777 
L 337.806627 418.341818 
L 342.357859 418.341818 
L 343.874936 427.326942 
L 345.392014 433.317025 
L 346.909091 433.317025 
L 348.426168 436.312066 
L 351.460323 436.312066 
L 352.9774 430.321983 
L 354.494477 415.346777 
L 356.011555 406.361653 
L 357.528632 400.37157 
L 362.079864 400.37157 
L 363.596941 376.41124 
L 365.114019 370.421157 
L 366.631096 376.41124 
L 368.148173 364.431074 
L 369.665251 355.44595 
L 372.699405 355.44595 
L 374.216483 352.450909 
L 375.73356 355.44595 
L 377.250637 340.470744 
L 383.318946 340.470744 
L 384.836024 343.465785 
L 386.353101 349.455868 
L 387.870178 343.465785 
L 389.387256 334.480661 
L 390.904333 343.465785 
L 393.938488 343.465785 
L 395.455565 337.475702 
L 396.972642 340.470744 
L 398.48972 346.460826 
L 400.006797 340.470744 
L 401.523874 331.48562 
L 406.075106 331.48562 
L 407.592184 325.495537 
L 409.109261 295.545124 
L 410.626338 289.555041 
L 412.143415 292.550083 
L 415.17757 292.550083 
L 416.694647 304.530248 
L 418.211725 301.535207 
L 419.728802 313.515372 
L 421.245879 310.520331 
L 427.314189 310.520331 
L 428.831266 292.550083 
L 430.348343 298.540165 
L 431.865421 310.520331 
L 433.382498 316.510413 
L 437.93373 316.510413 
L 440.967884 304.530248 
L 442.484962 325.495537 
L 444.002039 310.520331 
L 447.036194 310.520331 
L 448.553271 313.515372 
L 450.070348 319.505455 
L 451.587426 316.510413 
L 453.104503 322.500496 
L 454.62158 313.515372 
L 459.172812 313.515372 
L 460.68989 325.495537 
L 462.206967 307.525289 
L 463.724044 301.535207 
L 465.241121 316.510413 
L 468.275276 316.510413 
L 469.792353 328.490579 
L 471.309431 313.515372 
L 472.826508 307.525289 
L 474.343585 313.515372 
L 475.860663 310.520331 
L 480.411895 310.520331 
L 481.928972 319.505455 
L 483.446049 310.520331 
L 484.963127 313.515372 
L 489.514359 313.515372 
L 491.031436 328.490579 
L 492.548513 328.490579 
L 494.06559 331.48562 
L 495.582668 316.510413 
L 501.650977 316.510413 
L 503.168054 301.535207 
L 504.685132 295.545124 
L 506.202209 310.520331 
L 507.719286 313.515372 
L 512.270518 313.515372 
L 513.787596 310.520331 
L 515.304673 310.520331 
L 516.82175 322.500496 
L 518.338828 340.470744 
L 521.372982 340.470744 
L 522.890059 316.510413 
L 524.407137 310.520331 
L 525.924214 289.555041 
L 527.441291 280.569917 
L 531.992523 280.569917 
L 533.509601 283.564959 
L 535.026678 280.569917 
L 536.543755 268.589752 
L 538.060833 265.594711 
L 539.57791 268.589752 
L 542.612065 268.589752 
L 544.129142 256.609587 
L 545.646219 256.609587 
L 547.163297 277.574876 
L 548.680374 271.584793 
L 550.197451 277.574876 
L 553.231606 277.574876 
L 556.26576 295.545124 
L 557.782838 295.545124 
L 559.299915 298.540165 
L 563.851147 298.540165 
L 565.368224 295.545124 
L 566.885302 286.56 
L 568.402379 298.540165 
L 569.919456 292.550083 
L 571.436534 295.545124 
L 574.470688 295.545124 
L 575.987766 304.530248 
L 577.504843 301.535207 
L 579.02192 304.530248 
L 580.538997 304.530248 
L 582.056075 289.555041 
L 586.607307 289.555041 
L 588.124384 304.530248 
L 589.641461 304.530248 
L 591.158539 313.515372 
L 597.226848 313.515372 
L 598.743925 322.500496 
L 600.261003 319.505455 
L 601.77808 313.515372 
L 603.295157 316.510413 
L 606.329312 316.510413 
L 607.846389 301.535207 
L 609.363466 289.555041 
L 610.880544 292.550083 
L 612.397621 301.535207 
L 613.914698 292.550083 
L 618.46593 292.550083 
L 619.983008 295.545124 
L 621.500085 286.56 
L 623.017162 280.569917 
L 627.568394 280.569917 
L 629.085472 277.574876 
L 630.602549 265.594711 
L 632.119626 271.584793 
L 633.636703 271.584793 
L 635.153781 289.555041 
L 638.187935 289.555041 
L 639.705013 283.564959 
L 641.22209 289.555041 
L 642.739167 298.540165 
L 645.773322 292.550083 
L 648.807477 292.550083 
L 650.324554 289.555041 
L 651.841631 283.564959 
L 653.358709 289.555041 
L 654.875786 286.56 
L 660.944095 286.56 
L 662.461172 292.550083 
L 670.046559 292.550083 
L 671.563636 280.569917 
L 673.080714 286.56 
L 674.597791 280.569917 
L 676.114868 277.574876 
L 677.631946 271.584793 
L 682.183178 271.584793 
L 683.700255 262.599669 
L 685.217332 271.584793 
L 686.73441 271.584793 
L 688.251487 280.569917 
L 691.285641 280.569917 
L 692.802719 268.589752 
L 695.836873 268.589752 
L 697.353951 274.579835 
L 701.905183 274.579835 
L 704.939337 262.599669 
L 706.456415 274.579835 
L 707.973492 262.599669 
L 712.524724 262.599669 
L 714.041801 253.614545 
L 717.075956 253.614545 
L 718.593033 256.609587 
L 724.661342 256.609587 
L 726.17842 265.594711 
L 727.695497 271.584793 
L 729.212574 265.594711 
L 730.729652 271.584793 
L 733.763806 271.584793 
L 735.280884 268.589752 
L 736.797961 268.589752 
L 738.315038 265.594711 
L 739.832116 265.594711 
L 741.349193 268.589752 
L 744.383347 268.589752 
L 745.900425 265.594711 
L 747.417502 256.609587 
L 748.934579 268.589752 
L 750.451657 268.589752 
L 751.968734 274.579835 
L 758.037043 274.579835 
L 759.554121 268.589752 
L 761.071198 274.579835 
L 762.588275 268.589752 
L 768.656585 268.589752 
L 770.173662 277.574876 
L 771.690739 277.574876 
L 773.207816 286.56 
L 776.241971 286.56 
L 777.759048 277.574876 
L 779.276126 271.584793 
L 780.793203 277.574876 
L 782.31028 280.569917 
L 783.827358 277.574876 
L 786.861512 277.574876 
L 788.37859 280.569917 
L 789.895667 277.574876 
L 791.412744 280.569917 
L 792.929822 277.574876 
L 794.446899 271.584793 
L 797.481054 271.584793 
L 798.998131 277.574876 
L 803.549363 277.574876 
L 805.06644 271.584793 
L 809.617672 271.584793 
L 811.134749 286.56 
L 812.651827 286.56 
L 814.168904 295.545124 
L 818.720136 295.545124 
L 820.237213 280.569917 
L 821.754291 277.574876 
L 826.305523 259.604628 
L 829.339677 259.604628 
L 830.856754 256.609587 
L 832.373832 256.609587 
L 833.890909 241.63438 
L 835.407986 241.63438 
L 836.925064 238.639339 
L 839.959218 238.639339 
L 841.476296 244.629421 
L 842.993373 241.63438 
L 844.51045 235.644298 
L 846.027528 241.63438 
L 847.544605 235.644298 
L 850.57876 235.644298 
L 852.095837 229.654215 
L 853.612914 235.644298 
L 855.129992 235.644298 
L 856.647069 229.654215 
L 858.164146 214.679008 
L 862.715378 214.679008 
L 864.232455 223.664132 
L 871.817842 223.664132 
L 873.334919 214.679008 
L 874.851997 214.679008 
L 876.369074 199.703802 
L 877.886151 202.698843 
L 879.403229 196.70876 
L 882.437383 196.70876 
L 883.95446 202.698843 
L 885.471538 196.70876 
L 886.988615 193.713719 
L 888.505692 187.723636 
L 890.02277 199.703802 
L 893.056924 199.703802 
L 894.574002 202.698843 
L 896.091079 196.70876 
L 897.608156 193.713719 
L 899.125234 193.713719 
L 900.642311 187.723636 
L 903.676466 187.723636 
L 905.193543 193.713719 
L 908.227698 181.733554 
L 909.744775 187.723636 
L 911.261852 175.743471 
L 914.296007 175.743471 
L 915.813084 166.758347 
L 917.330161 172.74843 
L 918.847239 172.74843 
L 920.364316 160.768264 
L 921.881393 157.773223 
L 924.915548 157.773223 
L 926.432625 145.793058 
L 927.949703 145.793058 
L 929.46678 154.778182 
L 930.983857 154.778182 
L 932.500935 151.78314 
L 935.535089 151.78314 
L 937.052167 154.778182 
L 938.569244 151.78314 
L 940.086321 142.798017 
L 946.15463 142.798017 
L 947.671708 136.807934 
L 949.188785 127.82281 
L 950.705862 142.798017 
L 952.22294 136.807934 
L 956.774172 136.807934 
L 958.291249 130.817851 
L 959.808326 127.82281 
L 961.325404 139.802975 
L 962.842481 130.817851 
L 964.359558 124.827769 
L 968.91079 124.827769 
L 970.427867 115.842645 
L 971.944945 115.842645 
L 974.979099 103.862479 
L 979.530331 103.862479 
L 981.047409 100.867438 
L 982.564486 109.852562 
L 984.081563 103.862479 
L 985.598641 109.852562 
L 990.149873 109.852562 
L 991.66695 100.867438 
L 994.701105 88.887273 
L 996.218182 88.887273 
L 996.218182 88.887273 
" style="fill:none;stroke:#ff0000;stroke-linecap:square;stroke-width:1.5;"/>
   </g>
   <g id="patch_7">
    <path d="M 144 504 
L 144 69.12 
" style="fill:none;stroke:#000000;stroke-linecap:square;stroke-linejoin:miter;stroke-width:0.8;"/>
   </g>
   <g id="patch_8">
    <path d="M 1036.8 504 
L 1036.8 69.12 
" style="fill:none;stroke:#ff0000;stroke-linecap:square;stroke-linejoin:miter;stroke-width:0.8;"/>
   </g>
   <g id="patch_9">
    <path d="M 144 504 
L 1036.8 504 
" style="fill:none;"/>
   </g>
   <g id="patch_10">
    <path d="M 144 69.12 
L 1036.8 69.12 
" style="fill:none;"/>
   </g>
  </g>
 </g>
 <defs>
  <clipPath id="p72a76f5c04">
   <rect height="434.88" width="892.8" x="144" y="69.12"/>
  </clipPath>
 </defs>
</svg>
